<svg xmlns:xlink="http://www.w3.org/1999/xlink" xmlns="http://www.w3.org/2000/svg" class="icon icon--logo-scrambler" viewBox="0 0 80 29" width="80"  height="29" ><defs><symbol viewBox="0 0 80 29" id="logo-scrambler" xmlns="http://www.w3.org/2000/svg"><path d="M42.6 24.3c-.1.7-.2 1.2-.4 1.5-.2.3-.5.5-.9.6H41l.4-4h.3c.5-.1.7.1.8.4.2.3.2.8.1 1.5m-.5-3.5l-3.3.4-.7 7.3 3.5-.4c2.2-.2 3.7-1.8 3.9-3.9.2-2.3-.5-3.7-3.4-3.4M50.5 19.9l-.5 4.7c-.1.6-.3.8-.6.9-.3 0-.5-.2-.5-.7l.5-4.7-2.8.3-.5 4.8c-.2 1.7 1 2.5 3.1 2.2 2.1-.2 3.5-1.2 3.6-3l.5-4.8-2.8.3zM57.9 23.6c-.1.8-.4 1-.7 1.1-.7.1-.7-.7-.6-1.9.1-1.2.3-1.9 1-2 .3 0 .6.1.6.9l2.6-.3c.2-2.1-1.2-2.7-3-2.5-2.4.3-3.9 1.9-4 4.2-.2 2.3.8 3.7 3.3 3.4 1.8-.2 3.4-1.2 3.6-3.2l-2.8.3zM65 22.5l-1.2.1.9-2.8.3 2.7zm-1.9-4l-3 7.5 2.7-.3.4-1.2 2-.2.2 1.1 2.9-.3-1.6-7-3.6.4zM74.4 17.2l-6.3.7-.2 2 1.8-.2-.6 5.3 2.8-.3.6-5.4 1.7-.1zM74.9 17.1l-.7 7.3 2.8-.3.7-7.3zM3.8 11.34l2.9 9.9v.6c-.1.8-.8 1.6-1.7 1.7l-5 .6.3-2.8 3.2-.4c.2 0 .4-.2.4-.4v-.1L1 10.84c0-.2-.1-.5-.1-.7.1-.9.9-1.7 1.8-1.8l4.9-.5-.4 2.8-3 .3c-.2 0-.3.2-.4.4zm8.2-.9l-.9 9.3c0 .2.1.3.3.3l2.7-.3-.3 2.8-4.3.5c-.9.1-1.5-.5-1.5-1.3v-.1l1.2-12.4c.1-.9.9-1.7 1.7-1.8l4.3-.5-.2 2.7-2.7.3c-.2.1-.3.3-.3.5zm9.4 3.5l.4-4.6c0-.2-.1-.4-.3-.4l-1.8.2-.5 5.5 1.8-.2c.2 0 .4-.2.4-.5zm1.1 3.1l1 4.4-2.9.3-1-4.4-.6.1-.4 4.6-2.9.3 1.5-15.6 2-.2.8-.2 3.4-.4c.9 0 1.6.6 1.5 1.5l-.7 7.8c-.2.9-.9 1.6-1.7 1.8zm5.9-.5l1.5-.2-.2-5.6-1.3 5.8zm1.6 2.4l-2.2.2-.4 1.9-3.2.3 4.4-16 .9-.1 1.5-.1.9-.1 1.3 15.4-3.1.3-.1-1.8zm8.6-14.7l1 6.6 2.5-7h.3l2.9-.3-1.5 15.7-2.9.3.7-7.1-1.4 3.3-1.3 2.9-1.3-5.6-.7 6.9-2.9.3 1.5-15.7h.2l2.7-.3h.2zm14.2 6.2c.7-.1 1.1.4 1.1 1l-.5 5.1c-.1.9-.9 1.7-1.7 1.8l-3.4.4-2.9.3 1.4-15.6 2-.2.9-.1 3.4-.4c.9-.1 1.5.5 1.4 1.4l-.5 4.9c0 .7-.6 1.3-1.2 1.4zm-3.7-.5l2.1-.2.3-3.6c0-.2-.1-.4-.3-.4l-1.8.2-.3 4zm1.9 2.2l-2.1.2-.3 3.6 1.8-.2c.2 0 .4-.2.4-.4l.2-3.2zm10 5.2l-3.2.4-2.9.3 1.5-15.7 2.9-.3-1.3 12.8 3.2-.4-.2 2.9zm7.3-7.1l-2.8.3-.3 3.6 3.4-.4-.2 2.7-3.5.4-2.9.3 1.5-15.6 2-.2.9-.1 3.6-.4-.3 2.8-3.6.4-.4 4 2.8-.3-.2 2.5zm7.4-2.3l.4-4.6c0-.2-.1-.4-.3-.4l-1.8.2-.5 5.5 1.8-.2c.2 0 .3-.2.4-.5-.1.1-.1 0 0 0zm3.4-6.4l-.7 7.8c-.1.8-.8 1.5-1.6 1.7l1 4.4-2.9.3-1-4.4-.7.1-.4 4.6-2.9.3L71.4.74l2-.2.9-.1 3.4-.4c.9-.1 1.5.5 1.4 1.5z"></path></symbol></defs>
      <use xlink:href="#logo-scrambler" fill="#FAFAFA"></use>
    </svg>